<svg width="76" height="80" viewBox="0 0 76 80" fill="none" xmlns="http://www.w3.org/2000/svg">
<g clip-path="url(#clip0_4169_1567)">
<path d="M27.4294 35.1554V15.9588L19.3878 11.1261V30.6915L8.90822 24.3932V4.82788L0.871338 0V28.8667L8.90822 33.6993L19.3782 39.9928H19.3878V39.9976H19.3782L8.90822 46.2815L0.871338 51.119V79.9904L0.880917 80.0048L8.90822 75.1769L19.3878 68.8786L27.4294 64.046L33.9816 60.109L42.0232 55.2763V29.2115L48.4556 25.3463L56.4925 20.5185L67.0918 14.1436V23.8999L56.4925 30.2748L48.4556 35.1027V63.9693L56.4925 68.802L67.0918 75.1721L75.1287 80.0048V52.2445L67.0918 47.4166L56.4925 41.0417L55.2759 40.3137L56.4925 39.5857L67.0918 33.2108L75.1287 28.3829V0L67.0918 4.82788L56.4925 11.2028L48.4556 16.0354L42.0232 19.9006L33.9816 24.7381V50.7981L27.4294 54.7351L19.3878 59.5725L8.90822 65.8708V55.5972L19.3878 49.2989L27.1181 44.6483L27.4247 44.4663V35.1602L27.4294 35.1554ZM67.0918 56.7132V65.8612L56.4925 59.4863V50.3383L67.0918 56.7132Z" fill="#139ED5"/>
</g>
<defs>
<clipPath id="clip0_4169_1567">
<rect width="74.2573" height="80" fill="white" transform="translate(0.871338)"/>
</clipPath>
</defs>
</svg>
